<svg width="350" height="350" viewBox="0 0 350 350" fill="none" xmlns="http://www.w3.org/2000/svg">
<rect width="350" height="350" fill="black"/>
<path d="M51 151L31 24L63 71L129 95.5L132 120L73 101L74.5 110L135 132L136.5 147L79 127L80 135L139 157L175.5 193L211 158L271 135L273 126L214 147L216 132L277 110L278 101L219 120L223 95L290 71L320 25L301 149L175.5 326L51 151Z" fill="white"/>
<path d="M283 280L298 170L189 323L283 280Z" fill="white"/>
<path d="M52.5 170L162 323L68 280L52.5 170Z" fill="white"/>
<path d="M147 155L125 32L163 84H188L226.5 32L204 155L175.5 182L147 155Z" fill="white"/>
<path d="M51 151L31 24L63 71L129 95.5L132 120L73 101L74.5 110L135 132L136.5 147L79 127L80 135L139 157L175.5 193L211 158L271 135L273 126L214 147L216 132L277 110L278 101L219 120L223 95L290 71L320 25L301 149L175.5 326L51 151Z" stroke="black"/>
<path d="M283 280L298 170L189 323L283 280Z" stroke="black"/>
<path d="M52.5 170L162 323L68 280L52.5 170Z" stroke="black"/>
<path d="M147 155L125 32L163 84H188L226.5 32L204 155L175.5 182L147 155Z" stroke="black"/>
<path d="M174.99 150L162 105H187.981L174.99 150Z" fill="black"/>
<path d="M164.442 196.381L147.942 230.381L78.4421 162.381L164.442 196.381Z" fill="black"/>
<path d="M203.5 231L187 196.5L272 162.5L203.5 231Z" fill="black"/>
</svg>
